# xmcd
#
# Track frame offsets: 
#        150
#        4140
#        24880
#        39725
#        60435
#        79423
#        107148
#        120030
#        167623
#        211483
#        255450
#        260480
#        278468
#
# Disc length: 4118 seconds
#
# Revision: 0
# Processed by: cddbd v1.5.2PL0 Copyright (c) Steve Scherf et al.
# Submitted via: ExactAudioCopyFreeDBPlugin 1.0
#
DISCID=9e10140d
DTITLE=LASKINE, Lily / Lily Laskine Les Enregistrements Erato 1
DYEAR=2014
DGENRE=Classique
TTITLE0=Concerto En Ut Majeur Pour 2 Trompettes, 2 Flûtes, Hautbois, V
TTITLE0=ioloncelle, Harpe, Orgue, Clavecin Et Orchestre À Cordes I. La
TTITLE0=rfo
TTITLE1=Concerto En Ut Majeur Pour 2 Trompettes, 2 Flûtes, Hautbois, V
TTITLE1=ioloncelle, Harpe, Orgue, Clavecin Et Orchestre À Cordes II. A
TTITLE1=llegro Molto
TTITLE2=Concerto En Ut Majeur Pour 2 Trompettes, 2 Flûtes, Hautbois, V
TTITLE2=ioloncelle, Harpe, Orgue, Clavecin Et Orchestre À Cordes III. 
TTITLE2=Largo E Cantabile
TTITLE3=Concerto En Ut Majeur Pour 2 Trompettes, 2 Flûtes, Hautbois, V
TTITLE3=ioloncelle, Harpe, Orgue, Clavecin Et Orchestre À Cordes IV. A
TTITLE3=llegro
TTITLE4=LASKINE, Lily ORCHESTRE JEAN-FRANÇOIS PAILLARD / Concerto En S
TTITLE4=i Bémol Majeur Pour Harpe Et Orchestre I. Andante Allegro
TTITLE5=LASKINE, Lily ORCHESTRE JEAN-FRANÇOIS PAILLARD / Concerto En S
TTITLE5=i Bémol Majeur Pour Harpe Et Orchestre II. Larghetto
TTITLE6=LASKINE, Lily ORCHESTRE JEAN-FRANÇOIS PAILLARD / Concerto En S
TTITLE6=i Bémol Majeur Pour Harpe Et Orchestre III. Allegro Moderato
TTITLE7=LASKINE, Lily RAMPAL, Jean-Pierre / Concerto En Ut Majeur Pour
TTITLE7= Flûte, Harpe Et Orchestre I. Allegro
TTITLE8=LASKINE, Lily RAMPAL, Jean-Pierre / Concerto En Ut Majeur Pour
TTITLE8= Flûte, Harpe Et Orchestre II. Andantino
TTITLE9=LASKINE, Lily RAMPAL, Jean-Pierre / Concerto En Ut Majeur Pour
TTITLE9= Flûte, Harpe Et Orchestre III. Rondo Allegretto
TTITLE10=LASKINE, Lily LE DENTU, Odette / Symphonie Concertante Du Bal
TTITLE10=let De Mirza Pour 2 Harpes Et Orchestre I. Allegro
TTITLE11=LASKINE, Lily LE DENTU, Odette / Symphonie Concertante Du Bal
TTITLE11=let De Mirza Pour 2 Harpes Et Orchestre II. Largo
TTITLE12=LASKINE, Lily LE DENTU, Odette / Symphonie Concertante Du Bal
TTITLE12=let De Mirza Pour 2 Harpes Et Orchestre III. Rondo
EXTD=
EXTT0=
EXTT1=
EXTT2=
EXTT3=
EXTT4=
EXTT5=
EXTT6=
EXTT7=
EXTT8=
EXTT9=
EXTT10=
EXTT11=
EXTT12=
PLAYORDER=
